<svg xmlns="http://www.w3.org/2000/svg" viewBox="0 0 64 64" aria-labelledby="title"
aria-describedby="desc" role="img" xmlns:xlink="http://www.w3.org/1999/xlink">
  <title>Clouds</title>
  <desc>A color styled icon from Orion Icon Library.</desc>
  <path data-name="layer1"
  d="M56 43a12 12 0 0 0-12-12h-1.2a16 16 0 0 0-30.7 4H12a10 10 0 1 0 0 20h32.1A12 12 0 0 0 56 43z"
  fill="#cdf0f0"></path>
  <path data-name="opacity" d="M12 38a17 17 0 0 1 .3-2.8L12 35a10 10 0 1 0 0 20h17a17 17 0 0 1-17-17z"
  fill="#000064" opacity=".1"></path>
  <path data-name="opacity" d="M56 43a12 12 0 0 0-12-12h-1.2a16 16 0 0 0-12.1-9.8h-4.3a15.9 15.9 0 0 0-9.7 4.6 21.9 21.9 0 0 1 21.7 6.7l-1.1.6h.7a15 15 0 0 1 14.6 18.2A12 12 0 0 0 56 43zM41.8 31.2z"
  fill="#fff" opacity=".5"></path>
  <path data-name="layer1" d="M62 27a10 10 0 0 0-10-10 13 13 0 0 0-25 4h1a16 16 0 0 1 14.8 10.1H44a12 12 0 0 1 10.2 5.8A10 10 0 0 0 62 27z"
  fill="#cdf0f0"></path>
  <path data-name="opacity" d="M62 27a10 10 0 0 0-10-10 13 13 0 0 0-25 4h1a16 16 0 0 1 14.8 10.1H44a12 12 0 0 1 10.2 5.8A10 10 0 0 0 62 27z"
  fill="#000064" opacity=".1"></path>
  <path data-name="stroke" d="M54.2 36.7A10 10 0 0 0 52 17a13 13 0 0 0-25 4"
  fill="none" stroke="#2e4369" stroke-linecap="round" stroke-linejoin="round"
  stroke-width="2"></path>
  <path data-name="stroke" d="M56 43a12 12 0 0 0-12-12h-1.2a16 16 0 0 0-30.7 4H12a10 10 0 1 0 0 20h32.1A12 12 0 0 0 56 43z"
  fill="none" stroke="#2e4369" stroke-linecap="round" stroke-linejoin="round"
  stroke-width="2"></path>
</svg>