<?xml version="1.0" encoding="UTF-8"?>
<svg width="62px" height="38px" viewBox="0 0 62 38" version="1.1" xmlns="http://www.w3.org/2000/svg" xmlns:xlink="http://www.w3.org/1999/xlink">
    <!-- Generator: Sketch 52.6 (67491) - http://www.bohemiancoding.com/sketch -->
    <title>berawan</title>
    <desc>Created with Sketch.</desc>
    <g id="Page-1" stroke="none" stroke-width="1" fill="none" fill-rule="evenodd">
        <g id="berawan">
            <path d="M48,11 L47.5,11 C44.4060513,4.13696474 37.166765,0.126123384 29.7074585,1.14225183 C22.2481519,2.15838028 16.3454738,7.95945828 15.2,15.4 C11.1012417,14.2685024 6.71742294,15.6006251 3.94115707,18.8212546 C1.1648912,22.041884 0.49344212,26.5741653 2.21669259,30.4613898 C3.93994306,34.3486143 7.74923738,36.8945315 12,37 L48,37 C55.1797017,37 61,31.1797017 61,24 C61,16.8202983 55.1797017,11 48,11 Z" id="Path" fill="#CDF0F0"></path>
            <path d="M15,19 C14.9862828,17.826366 15.0867559,16.6541802 15.3,15.5 L15.1,15.5 C10.9474771,14.205258 6.42199243,15.479039 3.55448572,18.7496977 C0.686979,22.0203564 0.0160507091,26.6735688 1.84279897,30.6210736 C3.66954723,34.5685783 7.65085605,37.0689203 12,37 L33,37 C23.0588745,37 15,28.9411255 15,19 Z" id="Path" fill="#000064" opacity="0.1"></path>
            <path d="M61,24 C61,16.8202983 55.1797017,11 48,11 L47.5,11 C45.2226964,5.9577939 40.6341551,2.33918822 35.2,1.3 L34,1.1 L32,1.1 L28.8,1.4 C25.6949223,1.99602673 22.8193137,3.45115397 20.5,5.6 C28.3812851,3.96127505 36.5442154,6.58100616 42,12.5 C40.3789257,13.3291322 38.9484982,14.4870973 37.8,15.9 C42.8310167,13.9665019 48.5140087,14.900699 52.6613301,18.3429758 C56.8086515,21.7852525 58.7736856,27.198917 57.8,32.5 C59.8617984,30.1482635 60.9990017,27.1275671 61,24 Z" id="Path" fill="#FFFFFF" opacity="0.5"></path>
            <path d="M48,11 L47.5,11 C44.4060513,4.13696474 37.166765,0.126123384 29.7074585,1.14225183 C22.2481519,2.15838028 16.3454738,7.95945828 15.2,15.4 C11.1012417,14.2685024 6.71742294,15.6006251 3.94115707,18.8212546 C1.1648912,22.041884 0.49344212,26.5741653 2.21669259,30.4613898 C3.93994306,34.3486143 7.74923738,36.8945315 12,37 L48,37 C55.1797017,37 61,31.1797017 61,24 C61,16.8202983 55.1797017,11 48,11 Z" id="Shape" stroke="#2E4369" stroke-width="2" stroke-linecap="round" stroke-linejoin="round"></path>
        </g>
    </g>
</svg>