<svg xmlns="http://www.w3.org/2000/svg" viewBox="0 0 64 64" aria-labelledby="title"
aria-describedby="desc" role="img" xmlns:xlink="http://www.w3.org/1999/xlink">
  <title>Half Moon</title>
  <desc>A color styled icon from Orion Icon Library.</desc>
  <path data-name="layer1"
  d="M33.9 11A16.8 16.8 0 0 1 12 34.1 20.1 20.1 0 1 0 33.9 11z" fill="#e6f0fa"></path>
  <path data-name="opacity" d="M31.9 44.2a20.1 20.1 0 0 1-16.7-8.9 17 17 0 0 1-3.2-1.2 20.1 20.1 0 1 0 39.7-6.6 20.1 20.1 0 0 1-19.8 16.7z"
  fill="#000064" opacity=".15"></path>
  <path data-name="stroke" d="M33.9 11A16.8 16.8 0 0 1 12 34.1 20.1 20.1 0 1 0 33.9 11z"
  fill="none" stroke="#2e4369" stroke-linecap="round" stroke-linejoin="round"
  stroke-width="2"></path>
</svg>