<svg xmlns="http://www.w3.org/2000/svg" viewBox="0 0 64 64" aria-labelledby="title"
aria-describedby="desc" role="img" xmlns:xlink="http://www.w3.org/1999/xlink">
  <title>Partly Cloudy</title>
  <desc>A color styled icon from Orion Icon Library.</desc>
  <path data-name="layer2"
  d="M52 36a13 13 0 0 0-25 4.1h-1a8 8 0 1 0 0 16h26a10 10 0 0 0 0-20z" fill="#cdf0f0"></path>
  <path data-name="layer1" d="M34 29.5a10 10 0 1 0-6.9 10 13 13 0 0 1 6.9-10z"
  fill="#fc0"></path>
  <path data-name="opacity" d="M27.1 39.5a13 13 0 0 1 6.9-10 10 10 0 0 0-.2-1.4 13 13 0 0 0-11.7 11.7l1.9.2a10 10 0 0 0 3.1-.5zM27 42a14 14 0 0 1 .1-1.9H26a8 8 0 1 0 0 16h15A14 14 0 0 1 27 42z"
  fill="#000064" opacity=".1"></path>
  <path data-name="opacity" d="M48.2 36.8a10.1 10.1 0 0 0-3.5 2.5L47 39a12 12 0 0 1 11.8 14.3A10 10 0 0 0 52.6 36H52a13 13 0 0 0-20.8-4.6 17.7 17.7 0 0 1 16.9 5.4z"
  fill="#fff" opacity=".5"></path>
  <path data-name="stroke" d="M27.1 39.5a10 10 0 1 1 6.9-10M24 8v6M8 30H2m6.4-15.5l4.3 4.2m26.9-4.2l-4.3 4.2M12.7 41.3l-4.3 4.3"
  fill="none" stroke="#2e4369" stroke-linecap="round" stroke-linejoin="round"
  stroke-width="2"></path>
  <path data-name="stroke" d="M52 36a13 13 0 0 0-25 4.1h-1a8 8 0 1 0 0 16h26a10 10 0 0 0 0-20z"
  fill="none" stroke="#2e4369" stroke-linecap="round" stroke-linejoin="round"
  stroke-width="2"></path>
</svg>