<svg xmlns="http://www.w3.org/2000/svg" viewBox="0 0 64 64" aria-labelledby="title"
aria-describedby="desc" role="img" xmlns:xlink="http://www.w3.org/1999/xlink">
  <title>Night Cloudy</title>
  <desc>A color styled icon from Orion Icon Library.</desc>
  <path data-name="layer2"
  d="M62 42a12 12 0 0 0-12-12h-1.2a16 16 0 0 0-30.7 4H18a10 10 0 1 0 0 20h32.1A12 12 0 0 0 62 42z"
  fill="#cdf0f0"></path>
  <path data-name="opacity" d="M18 37a17 17 0 0 1 .3-2.8L18 34a10 10 0 1 0 0 20h17a17 17 0 0 1-17-17z"
  fill="#000064" opacity=".1"></path>
  <path data-name="opacity" d="M62 42a12 12 0 0 0-12-12h-1.2a16 16 0 0 0-12.1-9.8h-4.3a15.9 15.9 0 0 0-9.7 4.6 21.9 21.9 0 0 1 21.7 6.7l-1.1.6h.7a15 15 0 0 1 14.6 18.2A12 12 0 0 0 62 42zM47.8 30.2z"
  fill="#fff" opacity=".5"></path>
  <path data-name="layer1" d="M18.1 34a16 16 0 0 1 11.8-13.5A14 14 0 0 0 16 8h-.8A10 10 0 0 1 2 21.2v.8a14 14 0 0 0 10.6 13.6A9.9 9.9 0 0 1 18 34z"
  fill="#e6f0fa"></path>
  <path data-name="opacity" d="M12.6 35.6A9.9 9.9 0 0 1 18 34h.1a16 16 0 0 1 11.8-13.5v-.3L27 20a16 16 0 0 0-15.9 14H11l-1.9.2a13.9 13.9 0 0 0 3.5 1.4z"
  fill="#000064" opacity=".15"></path>
  <path data-name="stroke" d="M29.9 20.6A14 14 0 0 0 16 8h-.8A10 10 0 0 1 2 21.2v.8a14 14 0 0 0 10.6 13.6"
  fill="none" stroke="#2e4369" stroke-linecap="round" stroke-linejoin="round"
  stroke-width="2"></path>
  <path data-name="stroke" d="M62 42a12 12 0 0 0-12-12h-1.2a16 16 0 0 0-30.7 4H18a10 10 0 1 0 0 20h32.1A12 12 0 0 0 62 42z"
  fill="none" stroke="#2e4369" stroke-linecap="round" stroke-linejoin="round"
  stroke-width="2"></path>
</svg>