<svg xmlns="http://www.w3.org/2000/svg" viewBox="0 0 64 64" aria-labelledby="title"
aria-describedby="desc" role="img" xmlns:xlink="http://www.w3.org/1999/xlink">
  <title>Partly Cloudy Fog</title>
  <desc>A color styled icon from Orion Icon Library.</desc>
  <path data-name="layer2"
  d="M60 42a10 10 0 0 0-8-16 13 13 0 0 0-25 4.1h-1a8 8 0 0 0-6.9 12z" fill="#cdf0f0"></path>
  <path data-name="layer1" d="M26 30h1.1a13 13 0 0 1 6.1-10 10 10 0 1 0-13.5 13 8 8 0 0 1 6.3-3z"
  fill="#fc0"></path>
  <path data-name="opacity" d="M19.7 33a8 8 0 0 1 6.3-3h1.1a13 13 0 0 1 6.1-10 10 10 0 0 0-.9-1.7 13 13 0 0 0-10.2 11.8H21a7.9 7.9 0 0 0-4 1.1 10 10 0 0 0 2.7 1.8z"
  fill="#000064" opacity=".1"></path>
  <path data-name="opacity" d="M31.2 42a13.8 13.8 0 0 1-4.1-11.9H26a8 8 0 0 0-6.9 12z"
  fill="#000064" opacity=".1"></path>
  <path data-name="opacity" d="M59 41c0 .3 0 .7-.1 1h1a10 10 0 0 0-7.3-16H52a13 13 0 0 0-20.8-4.6 17.7 17.7 0 0 1 16.9 5.4 10.1 10.1 0 0 0-3.5 2.5L47 29a12 12 0 0 1 12 12z"
  fill="#fff" opacity=".5"></path>
  <path data-name="stroke" d="M19.7 33a10 10 0 1 1 13.5-13M24 2v6M8 24H2M8.4 8.4l4.3 4.3m26.9-4.3l-4.3 4.3M12.7 35.3l-4.3 4.3"
  fill="none" stroke="#2e4369" stroke-linecap="round" stroke-linejoin="round"
  stroke-width="2"></path>
  <path data-name="stroke" d="M62 36a10 10 0 0 0-10-10 13 13 0 0 0-25 4.1h-1a8 8 0 0 0-7.7 6M18 42h43.9M22 50h35.9M30 58h23.9m-33.8 0H24"
  fill="none" stroke="#2e4369" stroke-linecap="round" stroke-linejoin="round"
  stroke-width="2"></path>
</svg>