<svg xmlns="http://www.w3.org/2000/svg" viewBox="0 0 64 64" aria-labelledby="title"
aria-describedby="desc" role="img" xmlns:xlink="http://www.w3.org/1999/xlink">
  <title>Night Cloudy Fog</title>
  <desc>A color styled icon from Orion Icon Library.</desc>
  <path data-name="layer2"
  d="M59.8 39A11.9 11.9 0 0 0 48 25h-1.2a16 16 0 0 0-30.7 4H16A10 10 0 0 0 6 39h53.8z"
  fill="#cdf0f0"></path>
  <path data-name="layer1" d="M14 7h-.7A8.6 8.6 0 0 1 2 18.3v.7a12 12 0 0 0 8.6 11.5A9.9 9.9 0 0 1 16 29h.1a16 16 0 0 1 9.6-12.7A12 12 0 0 0 14 7z"
  fill="#e6f0fa"></path>
  <path data-name="opacity" d="M10.6 30.6A9.9 9.9 0 0 1 16 29h.1a16 16 0 0 1 9.6-12.7l-.4-1.2A16 16 0 0 0 11.1 29H11a10 10 0 0 0-3 .5 11.9 11.9 0 0 0 2.6 1.1z"
  fill="#000064" opacity=".1"></path>
  <path data-name="opacity" d="M17.5 39a16.6 16.6 0 0 1-1.3-9.8L16 29A10 10 0 0 0 6 39z"
  fill="#000064" opacity=".1"></path>
  <path data-name="opacity" d="M56.7 39h3.1A11.9 11.9 0 0 0 48 25h-1.2a16 16 0 0 0-12.1-9.8h-4.3a15.9 15.9 0 0 0-9.7 4.6 21.9 21.9 0 0 1 21.7 6.7l-1.1.6h.7A15 15 0 0 1 56.7 39z"
  fill="#fff" opacity=".5"></path>
  <path data-name="stroke" d="M25.7 16.3A12 12 0 0 0 14 7h-.7A8.6 8.6 0 0 1 2 18.3v.7a12 12 0 0 0 8.6 11.5"
  fill="none" stroke="#2e4369" stroke-linecap="round" stroke-linejoin="round"
  stroke-width="2"></path>
  <path data-name="stroke" d="M59.4 33A12 12 0 0 0 48 25h-1.1a16 16 0 0 0-30.7 4H16a10 10 0 0 0-8 4m-2 6h54m-50 8h44m-36 8h32M8.1 55H12"
  fill="none" stroke="#2e4369" stroke-linecap="round" stroke-linejoin="round"
  stroke-width="2"></path>
</svg>