<svg xmlns="http://www.w3.org/2000/svg" viewBox="0 0 64 64" aria-labelledby="title"
aria-describedby="desc" role="img" xmlns:xlink="http://www.w3.org/1999/xlink">
  <title>Hot Temperature</title>
  <desc>A color styled icon from Orion Icon Library.</desc>
  <path data-name="layer2"
  d="M40 36.5V10a8 8 0 1 0-16 0v26.5a14 14 0 1 0 16 0z" fill="#eef5fc"></path>
  <path data-name="layer1" d="M35 42.8V21a3 3 0 1 0-6 0v21.8a6 6 0 1 0 6 0z"
  fill="#ff7748"></path>
  <path data-name="opacity" d="M35 58a14 14 0 0 1-12.5-20.2 14 14 0 1 0 22 16.5A13.9 13.9 0 0 1 35 58z"
  fill="#000064" opacity=".1"></path>
  <path data-name="opacity" d="M34 51a6 6 0 0 1-5.8-7.7 6 6 0 1 0 9.5 6.3A6 6 0 0 1 34 51z"
  fill="#000064" opacity=".1"></path>
  <rect data-name="opacity" x="32" y="6" width="6" height="28" rx="3"
  ry="3" fill="#fff" opacity=".5"></rect>
  <circle data-name="opacity" cx="37" cy="45" r="5" fill="#fff" opacity=".5"></circle>
  <path data-name="stroke" d="M40 36.5V10a8 8 0 1 0-16 0v26.5a14 14 0 1 0 16 0z"
  fill="none" stroke="#2e4369" stroke-linecap="round" stroke-linejoin="round"
  stroke-width="2"></path>
  <path data-name="stroke" d="M35 42.8V21a3 3 0 1 0-6 0v21.8a6 6 0 1 0 6 0z"
  fill="none" stroke="#2e4369" stroke-linecap="round" stroke-linejoin="round"
  stroke-width="2"></path>
</svg>